<svg xmlns="http://www.w3.org/2000/svg" width="336.923" height="336.846" viewBox="0 0 336.923 336.846">
    <path id="accessibility-icon" d="M168.4,0A168.417,168.417,0,1,1,49.341,49.324,168.442,168.442,0,0,1,168.4,0Zm-1.069,203.27L142.8,271.036a13.538,13.538,0,0,1-7.071,7.755,13.7,13.7,0,0,1-18.692-17.1l17.1-47.351a72.054,72.054,0,0,0,3.207-10.961,111.349,111.349,0,0,0,1.48-11.454c.658-6.933,1.124-14.441,1.48-21.648s.6-14.194.795-19.976c.247-7.207-1.7-7.673-7.482-9.043l-1.206-.274L83.081,131.7a13.657,13.657,0,1,1,4.988-26.854l53.008,9.947c2.11.192,4.166.438,6.331.685a158.021,158.021,0,0,0,19.679,1.452,222.416,222.416,0,0,0,24.5-1.836c2.467-.274,4.8-.575,7.126-.795l50.02-9.372a13.662,13.662,0,1,1,5.043,26.854l-47.8,8.988c-1.59.356-3.015.6-4.276.795-4.988.849-7.455,1.288-7.154,8.385.219,5.179.85,11.372,1.672,17.839.959,7.59,2.22,15.647,3.536,23.018A112.333,112.333,0,0,0,202.5,203.27c1.1,3.727,2.165,7.536,3.81,12.112l16.747,46.31a13.7,13.7,0,0,1-18.692,17.1,13.538,13.538,0,0,1-7.071-7.755l-24.613-67.629-2.741-5.015L167.2,203.27ZM168.4,56.613a24.2,24.2,0,1,1-17.1,7.1,24.2,24.2,0,0,1,17.1-7.1Zm99.629,12.139a140.891,140.891,0,1,0,41.113,99.607,140.957,140.957,0,0,0-41.113-99.607Z" transform="translate(0.003 0)" fill="#fff"/>
</svg>
